<svg width="512" height="512" viewBox="0 0 512 512" fill="none" xmlns="http://www.w3.org/2000/svg">
  <!-- Background circle with gradient -->
  <defs>
    <linearGradient id="bgGradient512" x1="0%" y1="0%" x2="100%" y2="100%">
      <stop offset="0%" style="stop-color:#667eea;stop-opacity:1" />
      <stop offset="50%" style="stop-color:#5a67d8;stop-opacity:1" />
      <stop offset="100%" style="stop-color:#764ba2;stop-opacity:1" />
    </linearGradient>
    <linearGradient id="chartGradient512" x1="0%" y1="0%" x2="100%" y2="100%">
      <stop offset="0%" style="stop-color:#4facfe;stop-opacity:1" />
      <stop offset="50%" style="stop-color:#43a6fe;stop-opacity:1" />
      <stop offset="100%" style="stop-color:#00f2fe;stop-opacity:1" />
    </linearGradient>
    <linearGradient id="dataGradient512" x1="0%" y1="0%" x2="100%" y2="100%">
      <stop offset="0%" style="stop-color:#f093fb;stop-opacity:1" />
      <stop offset="50%" style="stop-color:#f476e5;stop-opacity:1" />
      <stop offset="100%" style="stop-color:#f5576c;stop-opacity:1" />
    </linearGradient>
    <linearGradient id="accentGradient512" x1="0%" y1="0%" x2="100%" y2="100%">
      <stop offset="0%" style="stop-color:#fce38a;stop-opacity:1" />
      <stop offset="100%" style="stop-color:#f8b500;stop-opacity:1" />
    </linearGradient>
    <filter id="shadow" x="-50%" y="-50%" width="200%" height="200%">
      <feDropShadow dx="0" dy="4" stdDeviation="8" flood-color="rgba(0,0,0,0.1)"/>
    </filter>
  </defs>
  
  <!-- Background -->
  <circle cx="256" cy="256" r="256" fill="url(#bgGradient512)"/>
  
  <!-- Main data table container -->
  <rect x="80" y="120" width="352" height="272" rx="24" fill="white" opacity="0.95" filter="url(#shadow)"/>
  
  <!-- Table header -->
  <rect x="80" y="120" width="352" height="56" rx="24" fill="url(#dataGradient512)"/>
  <rect x="80" y="152" width="352" height="24" fill="url(#dataGradient512)"/>
  
  <!-- Header text lines -->
  <rect x="104" y="136" width="80" height="8" rx="4" fill="white" opacity="0.9"/>
  <rect x="200" y="136" width="60" height="8" rx="4" fill="white" opacity="0.9"/>
  <rect x="280" y="136" width="70" height="8" rx="4" fill="white" opacity="0.9"/>
  <rect x="368" y="136" width="48" height="8" rx="4" fill="white" opacity="0.9"/>
  
  <!-- Table rows -->
  <rect x="104" y="192" width="304" height="12" rx="6" fill="#e9ecef"/>
  <rect x="104" y="216" width="304" height="12" rx="6" fill="#dee2e6"/>
  <rect x="104" y="240" width="304" height="12" rx="6" fill="#e9ecef"/>
  <rect x="104" y="264" width="304" height="12" rx="6" fill="#dee2e6"/>
  <rect x="104" y="288" width="304" height="12" rx="6" fill="#e9ecef"/>
  <rect x="104" y="312" width="304" height="12" rx="6" fill="#dee2e6"/>
  <rect x="104" y="336" width="304" height="12" rx="6" fill="#e9ecef"/>
  <rect x="104" y="360" width="304" height="12" rx="6" fill="#dee2e6"/>
  
  <!-- Chart visualization area -->
  <g transform="translate(120, 200)">
    <!-- Bar chart -->
    <rect x="20" y="80" width="20" height="80" rx="4" fill="url(#chartGradient512)"/>
    <rect x="60" y="40" width="20" height="120" rx="4" fill="url(#chartGradient512)"/>
    <rect x="100" y="20" width="20" height="140" rx="4" fill="url(#chartGradient512)"/>
    <rect x="140" y="60" width="20" height="100" rx="4" fill="url(#chartGradient512)"/>
    <rect x="180" y="10" width="20" height="150" rx="4" fill="url(#chartGradient512)"/>
    <rect x="220" y="50" width="20" height="110" rx="4" fill="url(#chartGradient512)"/>
    
    <!-- Trend line -->
    <path d="M 30 150 Q 70 110 110 90 Q 150 120 190 70 Q 230 100 270 80" 
          stroke="url(#dataGradient512)" stroke-width="6" fill="none" 
          stroke-linecap="round" stroke-linejoin="round"/>
    
    <!-- Data points -->
    <circle cx="30" cy="150" r="8" fill="white" stroke="url(#dataGradient512)" stroke-width="4"/>
    <circle cx="70" cy="110" r="8" fill="white" stroke="url(#dataGradient512)" stroke-width="4"/>
    <circle cx="110" cy="90" r="8" fill="white" stroke="url(#dataGradient512)" stroke-width="4"/>
    <circle cx="150" cy="120" r="8" fill="white" stroke="url(#dataGradient512)" stroke-width="4"/>
    <circle cx="190" cy="70" r="8" fill="white" stroke="url(#dataGradient512)" stroke-width="4"/>
    <circle cx="230" cy="100" r="8" fill="white" stroke="url(#dataGradient512)" stroke-width="4"/>
  </g>
  
  <!-- Upload icon -->
  <g transform="translate(380, 80)">
    <circle cx="32" cy="32" r="32" fill="white" opacity="0.95" filter="url(#shadow)"/>
    <path d="M 32 8 L 20 20 L 26 20 L 26 44 L 38 44 L 38 20 L 44 20 Z" fill="url(#bgGradient512)"/>
    <rect x="16" y="48" width="32" height="6" rx="3" fill="url(#bgGradient512)"/>
    <rect x="20" y="56" width="24" height="4" rx="2" fill="url(#accentGradient512)"/>
  </g>
  
  <!-- Analytics symbol -->
  <g transform="translate(72, 80)">
    <circle cx="24" cy="24" r="24" fill="white" opacity="0.95" filter="url(#shadow)"/>
    <path d="M 8 28 L 14 22 L 20 28 L 26 16 L 32 22 L 40 18" 
          stroke="url(#chartGradient512)" stroke-width="4" fill="none" 
          stroke-linecap="round" stroke-linejoin="round"/>
    <circle cx="14" cy="22" r="3" fill="url(#chartGradient512)"/>
    <circle cx="20" cy="28" r="3" fill="url(#chartGradient512)"/>
    <circle cx="26" cy="16" r="3" fill="url(#chartGradient512)"/>
    <circle cx="32" cy="22" r="3" fill="url(#chartGradient512)"/>
  </g>
  
  <!-- Pie chart icon -->
  <g transform="translate(380, 400)">
    <circle cx="24" cy="24" r="24" fill="white" opacity="0.95" filter="url(#shadow)"/>
    <circle cx="24" cy="24" r="16" fill="none" stroke="url(#dataGradient512)" stroke-width="4"/>
    <path d="M 24 8 A 16 16 0 0 1 35.8 18.2 Z" fill="url(#chartGradient512)"/>
    <path d="M 35.8 18.2 A 16 16 0 0 1 32.8 35.2 Z" fill="url(#accentGradient512)"/>
    <path d="M 32.8 35.2 A 16 16 0 0 1 8 24 Z" fill="url(#dataGradient512)"/>
    <path d="M 8 24 A 16 16 0 0 1 24 8 Z" fill="#e9ecef"/>
  </g>
  
  <!-- Clean/filter icon -->
  <g transform="translate(72, 400)">
    <circle cx="24" cy="24" r="24" fill="white" opacity="0.95" filter="url(#shadow)"/>
    <path d="M 12 8 L 36 8 L 36 12 L 32 16 L 32 36 L 28 40 L 20 40 L 16 36 L 16 16 L 12 12 Z" 
          fill="none" stroke="url(#accentGradient512)" stroke-width="3" stroke-linecap="round" stroke-linejoin="round"/>
    <rect x="18" y="20" width="12" height="2" rx="1" fill="url(#accentGradient512)"/>
    <rect x="20" y="26" width="8" height="2" rx="1" fill="url(#accentGradient512)"/>
    <rect x="22" y="32" width="4" height="2" rx="1" fill="url(#accentGradient512)"/>
  </g>
  
  <!-- Bottom decorative elements -->
  <path d="M 64 408 Q 256 448 448 408" stroke="white" stroke-width="8" fill="none" opacity="0.4" stroke-linecap="round"/>
  <path d="M 96 424 Q 256 444 416 424" stroke="white" stroke-width="6" fill="none" opacity="0.3" stroke-linecap="round"/>
  
  <!-- Sparkle effects -->
  <g opacity="0.6">
    <circle cx="160" cy="140" r="2" fill="white"/>
    <circle cx="320" cy="160" r="3" fill="white"/>
    <circle cx="380" cy="320" r="2" fill="white"/>
    <circle cx="140" cy="350" r="2" fill="white"/>
  </g>
</svg>
