<svg width="192" height="192" viewBox="0 0 192 192" fill="none" xmlns="http://www.w3.org/2000/svg">
  <!-- Background circle with gradient -->
  <defs>
    <linearGradient id="bgGradient" x1="0%" y1="0%" x2="100%" y2="100%">
      <stop offset="0%" style="stop-color:#667eea;stop-opacity:1" />
      <stop offset="100%" style="stop-color:#764ba2;stop-opacity:1" />
    </linearGradient>
    <linearGradient id="chartGradient" x1="0%" y1="0%" x2="100%" y2="100%">
      <stop offset="0%" style="stop-color:#4facfe;stop-opacity:1" />
      <stop offset="100%" style="stop-color:#00f2fe;stop-opacity:1" />
    </linearGradient>
    <linearGradient id="dataGradient" x1="0%" y1="0%" x2="100%" y2="100%">
      <stop offset="0%" style="stop-color:#f093fb;stop-opacity:1" />
      <stop offset="100%" style="stop-color:#f5576c;stop-opacity:1" />
    </linearGradient>
  </defs>
  
  <!-- Background -->
  <circle cx="96" cy="96" r="96" fill="url(#bgGradient)"/>
  
  <!-- Data table representation -->
  <rect x="32" y="48" width="128" height="96" rx="8" fill="white" opacity="0.9"/>
  
  <!-- Table header -->
  <rect x="32" y="48" width="128" height="20" rx="8" fill="url(#dataGradient)"/>
  
  <!-- Table rows -->
  <rect x="40" y="76" width="112" height="4" rx="2" fill="#e9ecef"/>
  <rect x="40" y="88" width="112" height="4" rx="2" fill="#dee2e6"/>
  <rect x="40" y="100" width="112" height="4" rx="2" fill="#e9ecef"/>
  <rect x="40" y="112" width="112" height="4" rx="2" fill="#dee2e6"/>
  
  <!-- Chart elements -->
  <g transform="translate(48, 90)">
    <!-- Bar chart bars -->
    <rect x="8" y="20" width="8" height="24" rx="2" fill="url(#chartGradient)"/>
    <rect x="24" y="12" width="8" height="32" rx="2" fill="url(#chartGradient)"/>
    <rect x="40" y="8" width="8" height="36" rx="2" fill="url(#chartGradient)"/>
    <rect x="56" y="16" width="8" height="28" rx="2" fill="url(#chartGradient)"/>
    <rect x="72" y="4" width="8" height="40" rx="2" fill="url(#chartGradient)"/>
    
    <!-- Chart trend line -->
    <path d="M 12 40 Q 28 28 44 24 Q 60 32 76 20" stroke="url(#dataGradient)" stroke-width="3" fill="none" stroke-linecap="round"/>
    
    <!-- Data points -->
    <circle cx="12" cy="40" r="3" fill="white" stroke="url(#dataGradient)" stroke-width="2"/>
    <circle cx="28" cy="28" r="3" fill="white" stroke="url(#dataGradient)" stroke-width="2"/>
    <circle cx="44" cy="24" r="3" fill="white" stroke="url(#dataGradient)" stroke-width="2"/>
    <circle cx="60" cy="32" r="3" fill="white" stroke="url(#dataGradient)" stroke-width="2"/>
    <circle cx="76" cy="20" r="3" fill="white" stroke="url(#dataGradient)" stroke-width="2"/>
  </g>
  
  <!-- Upload arrow icon -->
  <g transform="translate(144, 32)">
    <circle cx="12" cy="12" r="12" fill="white" opacity="0.9"/>
    <path d="M 12 4 L 8 8 L 10 8 L 10 16 L 14 16 L 14 8 L 16 8 Z" fill="url(#bgGradient)"/>
    <rect x="6" y="18" width="12" height="2" rx="1" fill="url(#bgGradient)"/>
  </g>
  
  <!-- Analytics symbol -->
  <g transform="translate(28, 32)">
    <circle cx="8" cy="8" r="8" fill="white" opacity="0.9"/>
    <path d="M 4 10 L 6 8 L 8 10 L 10 6 L 12 8" stroke="url(#chartGradient)" stroke-width="2" fill="none" stroke-linecap="round" stroke-linejoin="round"/>
    <circle cx="6" cy="8" r="1.5" fill="url(#chartGradient)"/>
    <circle cx="8" cy="10" r="1.5" fill="url(#chartGradient)"/>
    <circle cx="10" cy="6" r="1.5" fill="url(#chartGradient)"/>
  </g>
  
  <!-- Bottom accent -->
  <path d="M 24 152 Q 96 168 168 152" stroke="white" stroke-width="4" fill="none" opacity="0.6" stroke-linecap="round"/>
</svg>
